Coordinates
version=1
nRows=10
nColumns=34
inDegrees=yes

Units are S.I. units (second, meters, Newtons, ...)
If the header above contains a line with 'inDegrees', this indicates whether rotational values are in degrees (yes) or radians (no).

endheader
time	pelvis_tilt	pelvis_list	pelvis_rotation	pelvis_tx	pelvis_ty	pelvis_tz	hip_flexion_r	hip_adduction_r	hip_rotation_r	knee_angle_r	ankle_angle_r	subtalar_angle_r	mtp_angle_r	hip_flexion_l	hip_adduction_l	hip_rotation_l	knee_angle_l	ankle_angle_l	subtalar_angle_l	mtp_angle_l	lumbar_extension	lumbar_bending	lumbar_rotation	arm_flex_r	arm_add_r	arm_rot_r	elbow_flex_r	pro_sup_r	arm_flex_l	arm_add_l	arm_rot_l	elbow_flex_l	pro_sup_l
      7.52500000	     14.07479921	      1.25469552	      6.12674583	      1.95143680	      0.67607871	     -0.85559721	     65.83965886	     -5.90344712	      4.98158016	     95.69234955	     15.70893669	     -4.47118781	      0.00000000	     66.99756963	      6.32811657	     -0.85461821	     96.47253457	      4.47868908	    -21.96084695	      0.00000000	    -36.69152888	      0.87614298	      4.94680738	     42.91331009	     -7.72749393	     78.16149938	    107.64802278	     82.54581691	     50.55297435	     -1.41894742	     82.15770102	    103.79897179	     62.55949438
      7.53333330	     14.10750787	      1.25241742	      6.13513189	      1.95154722	      0.67691759	     -0.85561666	     65.82970962	     -5.87424006	      5.01153010	     95.69948625	     15.71053282	     -4.46998982	      0.00000000	     67.00504807	      6.33693708	     -0.87986182	     96.60796193	      4.50414058	    -21.98000356	      0.00000000	    -36.68599677	      0.89961820	      4.90709063	     42.87899937	     -7.73895576	     78.14197553	    107.63910848	     82.54012375	     50.53826953	     -1.39803122	     82.17733850	    103.81873599	     62.55360536
      7.54166670	     14.08540199	      1.25987895	      6.21290020	      1.94753194	      0.67781787	     -0.85469081	     65.88159223	     -5.92525364	      4.97144397	     95.60704718	     15.14110111	     -4.27067219	      0.00000000	     66.99124979	      6.37469476	     -0.85053025	     96.38700939	      4.50255369	    -21.90057365	      0.00000000	    -36.76654706	      0.93152045	      4.89453705	     42.88107223	     -7.77138418	     77.87830626	    107.55713522	     82.49342948	     50.64670343	     -1.48218216	     82.15221817	    103.82298019	     62.50530706
      7.55000000	     14.07954494	      1.25818060	      6.21532384	      1.94789561	      0.67738959	     -0.85491432	     65.88457230	     -5.94363312	      4.98181824	     95.50558245	     15.06145880	     -4.26814405	      0.00000000	     67.02462668	      6.37606883	     -0.82901284	     96.28378690	      4.46883173	    -21.87418371	      0.00000000	    -36.79805866	      0.92580414	      4.91103057	     42.91937227	     -7.76766126	     77.80513608	    107.54378677	     82.48359960	     50.68929811	     -1.50961597	     82.12479784	    103.80113063	     62.49461891
      7.55833330	     14.16540842	      1.25284427	      6.16812818	      1.95154284	      0.67575951	     -0.85596888	     65.92026087	     -5.95241875	      5.00454190	     95.74216227	     15.04188499	     -4.30788638	      0.00000000	     67.00814917	      6.39357909	     -0.82401202	     96.58573419	      4.48193807	    -21.88775663	      0.00000000	    -36.81621961	      0.96170818	      4.84270679	     42.85488960	     -7.77050353	     77.80007257	    107.53975471	     82.47890565	     50.69767003	     -1.46145819	     82.13043668	    103.81178342	     62.48881585
      7.56666670	     14.18056034	      1.20920440	      6.26753270	      1.95103606	      0.67552664	     -0.85624017	     65.93907709	     -5.97963418	      4.98997930	     95.85961883	     15.12820579	     -4.50840598	      0.00000000	     67.03430539	      6.47048016	     -0.80745082	     96.77575982	      4.83067720	    -22.00560373	      0.00000000	    -36.72519732	      0.99753826	      4.66815216	     42.47968394	     -7.69594153	     77.85430531	    107.61616953	     82.45285682	     50.69939025	     -1.28591822	     82.24869466	    104.02242598	     62.45938474
      7.57500000	     14.12239151	      1.20777595	      6.25282621	      1.94802032	      0.67630982	     -0.85513055	     65.96866275	     -5.93068495	      5.00260222	     95.75679772	     14.82600491	     -4.34725175	      0.00000000	     67.08748428	      6.43424570	     -0.81939871	     96.66168342	      4.64576675	    -21.78933921	      0.00000000	    -36.68040350	      1.03254663	      4.75217731	     42.65223242	     -7.80104850	     77.63064829	    107.60486292	     82.41989740	     50.80449481	     -1.46751807	     82.25160411	    104.02133194	     62.42661919
      7.58333330	     14.12767957	      1.21113471	      6.25120368	      1.94862582	      0.67584144	     -0.85524691	     65.96724430	     -5.93185104	      5.00329404	     95.75394080	     14.82413742	     -4.34646862	      0.00000000	     67.09215676	      6.43114213	     -0.81568490	     96.65441227	      4.64485522	    -21.78838944	      0.00000000	    -36.68120408	      1.03244896	      4.75250166	     42.65311190	     -7.80124404	     77.62956556	    107.60459047	     82.41974818	     50.80561341	     -1.46831047	     82.25103442	    104.02073805	     62.42643881
      7.59166670	     14.12314547	      1.20908893	      6.13446355	      1.94831835	      0.67596858	     -0.85513280	     66.03238387	     -5.84184274	      5.03764630	     95.71041605	     14.26815744	     -4.15404653	      0.00000000	     67.12156941	      6.32582868	     -0.81255580	     96.58143549	      4.22693581	    -21.52035743	      0.00000000	    -36.70006934	      1.01102694	      4.84231966	     42.97486076	     -7.87184441	     77.24435242	    107.49316923	     82.37431139	     51.08625212	     -1.66381778	     82.05113931	    103.80361499	     62.37248210
      7.60000000	     14.18818581	      1.22506884	      6.05672743	      1.94998665	      0.67651006	     -0.85437643	     65.93343203	     -5.73060019	      5.07212075	     95.61968297	     14.85155954	     -4.73183870	      0.00000000	     67.00666332	      6.20690835	     -0.84712491	     96.61832064	      4.16843195	    -21.66435602	      0.00000000	    -36.74079988	      0.88594326	      4.93751454	     42.93594222	     -7.80796592	     77.04190136	    107.36832083	     82.32920047	     51.04221896	     -1.68564230	     81.96339183	    103.64025579	     62.31507446
